<svg width="306" height="269" viewBox="0 0 306 269" fill="none" xmlns="http://www.w3.org/2000/svg">
<path fill-rule="evenodd" clip-rule="evenodd" d="M137.567 268.098L90.6836 247.995L115.48 198.143L136.842 208.484L122.918 236.062L125.144 237.017C137.192 242.181 142.755 256.098 137.567 268.098Z" fill="black"/>
<path fill-rule="evenodd" clip-rule="evenodd" d="M256.314 257.759L231.811 209.917L253.284 199.804L267.742 226.497L273.012 224.086C284.932 218.631 299.034 223.837 304.511 235.708L256.314 257.759Z" fill="black"/>
<path fill-rule="evenodd" clip-rule="evenodd" d="M305.732 119.413L288.934 102.683C270.728 120.819 245.526 130.491 221.524 128.559C202.705 127.043 186.876 118.645 176.945 104.909L157.668 118.731C170.178 136.036 188.97 147.313 211.174 151.069V155.523C207.7 157.407 203.044 159.258 197.207 161.064C191.365 162.872 184.423 163.774 176.372 163.774C168.479 163.774 161.339 162.442 154.949 159.766C148.556 157.096 143.07 153.364 138.494 148.567C133.914 143.776 130.405 138.117 127.96 131.591C125.51 125.069 124.289 117.88 124.289 110.017C124.289 102.317 125.51 95.1638 127.96 88.5617C130.405 81.9597 133.914 76.2651 138.494 71.4685C143.07 66.6743 148.556 62.9421 154.949 60.2694C161.339 57.5968 168.479 56.2592 176.372 56.2592C185.843 56.2592 193.734 57.5968 200.048 60.2694C206.357 62.9421 212.039 66.8692 217.092 72.0577L243.134 43.7654C234.613 35.9065 224.704 30.3664 213.423 27.1425C202.138 23.9211 189.786 22.308 176.372 22.308C163.269 22.308 151.197 24.3535 140.152 28.4373C129.103 32.5283 119.554 38.382 111.505 46.0057C103.457 53.6317 97.1834 62.8614 92.6845 73.7088C88.1855 84.5539 85.9385 96.6605 85.9385 110.017C85.9385 123.38 88.1855 135.482 92.6845 146.327C97.1834 157.175 103.457 166.409 111.505 174.03C119.554 181.656 129.103 187.51 140.152 191.596C151.197 195.682 163.269 197.726 176.372 197.726C188.684 197.726 200.756 196.466 212.593 193.953C224.432 191.442 235.794 187.353 246.685 181.694V150.622C268.464 146.541 289.389 135.686 305.732 119.413L305.732 119.413Z" fill="#FFAF00"/>
<path fill-rule="evenodd" clip-rule="evenodd" d="M203.38 107.186C209.581 107.186 214.608 101.321 214.608 94.0869C214.608 86.8527 209.581 80.9882 203.38 80.9882C197.18 80.9882 192.153 86.8527 192.153 94.0869C192.153 101.321 197.18 107.186 203.38 107.186Z" fill="black"/>
<path fill-rule="evenodd" clip-rule="evenodd" d="M257.74 107.186C263.941 107.186 268.968 101.321 268.968 94.0869C268.968 86.8527 263.941 80.9882 257.74 80.9882C251.539 80.9882 246.513 86.8527 246.513 94.0869C246.513 101.321 251.539 107.186 257.74 107.186Z" fill="black"/>
<path fill-rule="evenodd" clip-rule="evenodd" d="M10.1762 9.99724C11.8597 8.15691 11.8103 5.37133 10.0658 3.77549C8.32133 2.17964 5.54237 2.37785 3.85884 4.21819C2.17532 6.05853 2.22473 8.8441 3.96922 10.4399C5.71371 12.0358 8.49266 11.8376 10.1762 9.99724Z" fill="#FFAF00"/>
<path fill-rule="evenodd" clip-rule="evenodd" d="M21.9953 20.2472C23.6788 18.4069 23.6294 15.6213 21.8849 14.0255C20.1404 12.4296 17.3615 12.6278 15.6779 14.4682C13.9944 16.3085 14.0438 19.0941 15.7883 20.6899C17.5328 22.2858 20.3118 22.0876 21.9953 20.2472Z" fill="#FFAF00"/>
<path fill-rule="evenodd" clip-rule="evenodd" d="M33.8151 30.4963C35.4986 28.6559 35.4492 25.8704 33.7047 24.2745C31.9602 22.6787 29.1813 22.8769 27.4978 24.7172C25.8142 26.5575 25.8636 29.3431 27.6081 30.939C29.3526 32.5348 32.1316 32.3366 33.8151 30.4963Z" fill="#FFAF00"/>
<path fill-rule="evenodd" clip-rule="evenodd" d="M45.6342 40.7453C47.3177 38.905 47.2683 36.1194 45.5238 34.5235C43.7793 32.9277 41.0004 33.1259 39.3169 34.9662C37.6333 36.8066 37.6827 39.5921 39.4272 41.188C41.1717 42.7838 43.9507 42.5856 45.6342 40.7453Z" fill="#FFAF00"/>
<path fill-rule="evenodd" clip-rule="evenodd" d="M57.4543 50.9943C59.1378 49.154 59.0884 46.3684 57.3439 44.7726C55.5994 43.1767 52.8204 43.3749 51.1369 45.2153C49.4534 47.0556 49.5028 49.8412 51.2473 51.437C52.9918 53.0329 55.7707 52.8347 57.4543 50.9943Z" fill="#FFAF00"/>
<path fill-rule="evenodd" clip-rule="evenodd" d="M60.7758 204.817C62.8371 206.221 65.5872 205.775 66.9185 203.822C68.2497 201.868 67.6578 199.145 65.5965 197.741C63.5353 196.336 60.7851 196.782 59.4539 198.736C58.1227 200.69 58.7145 203.412 60.7758 204.817Z" fill="#FFAF00"/>
<path fill-rule="evenodd" clip-rule="evenodd" d="M51.7568 217.366C53.818 218.77 56.5682 218.324 57.8994 216.37C59.2306 214.417 58.6388 211.694 56.5775 210.29C54.5162 208.885 51.7661 209.331 50.4348 211.285C49.1036 213.239 49.6955 215.961 51.7568 217.366Z" fill="#FFAF00"/>
<path fill-rule="evenodd" clip-rule="evenodd" d="M42.738 229.915C44.7992 231.319 47.5494 230.873 48.8806 228.92C50.2118 226.966 49.62 224.243 47.5587 222.839C45.4974 221.434 42.7473 221.88 41.416 223.834C40.0848 225.788 40.6767 228.51 42.738 229.915Z" fill="#FFAF00"/>
<path fill-rule="evenodd" clip-rule="evenodd" d="M33.7179 242.464C35.7792 243.868 38.5294 243.422 39.8606 241.468C41.1918 239.515 40.6 236.792 38.5387 235.388C36.4774 233.983 33.7272 234.429 32.396 236.383C31.0648 238.337 31.6566 241.059 33.7179 242.464Z" fill="#FFAF00"/>
<path fill-rule="evenodd" clip-rule="evenodd" d="M24.6989 255.013C26.7602 256.417 29.5103 255.971 30.8415 254.018C32.1728 252.064 31.5809 249.341 29.5196 247.937C27.4584 246.532 24.7082 246.978 23.377 248.932C22.0458 250.886 22.6376 253.608 24.6989 255.013Z" fill="#FFAF00"/>
</svg>
